<svg xmlns="http://www.w3.org/2000/svg" width="17" height="17" viewBox="0 0 17 17">
  <path id="Icon_metro-cross" data-name="Icon metro-cross" d="M19.416,15.586h0l-5.157-5.157,5.157-5.157h0a.532.532,0,0,0,0-.751L16.979,2.083a.533.533,0,0,0-.751,0h0L11.071,7.241,5.914,2.083h0a.533.533,0,0,0-.751,0L2.726,4.52a.532.532,0,0,0,0,.751h0l5.157,5.157L2.726,15.585h0a.532.532,0,0,0,0,.751l2.436,2.436a.533.533,0,0,0,.751,0h0l5.157-5.157,5.157,5.157h0a.532.532,0,0,0,.751,0l2.436-2.436a.532.532,0,0,0,0-.751Z" transform="translate(-2.571 -1.928)" fill="#c72b57"/>
</svg>
