<svg xmlns="http://www.w3.org/2000/svg" width="32.461" height="29.95" viewBox="0 0 32.461 29.95">
  <path id="Icon_ionic-ios-text" data-name="Icon ionic-ios-text" d="M19.6,4.5c-8.961,0-16.223,5.865-16.223,13.1,0,5.062,3.557,9.453,8.759,11.637a10.193,10.193,0,0,1-2.613,4.719.309.309,0,0,0,.281.491,12.548,12.548,0,0,0,3.978-.991,12.307,12.307,0,0,0,3.611-2.878,20.764,20.764,0,0,0,2.223.125c8.961,0,16.223-5.865,16.223-13.1C35.82,10.365,28.559,4.5,19.6,4.5Z" transform="translate(-3.375 -4.5)" fill="#fff"/>
</svg>
